# xmcd
#
# Track frame offsets:
#	150
#	14163
#	26508
#	37146
#	48785
#	59743
#	75696
#	91933
#	106342
#	127360
#	141850
#	158940
#	169086
#	208737
#	219964
#	231014
#	242826
#	257007
#
# Disc length: 3631
#
# Revision: 4
# Processed by: cddbd v1.5.1PL0 Copyright (c) Steve Scherf et al.
# Submitted via: CDex 1.51
# Normalized: r3:TDELIM( - )
#
DISCID=050e2d12
DTITLE=Ladies Of Jazz - Most Famous Hits CD2
DYEAR=2002
DGENRE=Jazz
TTITLE0=Della Reese - Love Me Tender
TTITLE1=Sarah Vaughn - My Favorite Things
TTITLE2=Pearl Bailey - That Certain Feeling
TTITLE3=Lena Horne - Old Devil Moon
TTITLE4=Ella Fitzgerald - Flying Home
TTITLE5=Della Reese - When I Fall In Love
TTITLE6=Sarah Vaughn - Round Midnight
TTITLE7=Chick Corea - Come Rain Or Shine
TTITLE8=Carmen McCrae - Masquerade Is Over
TTITLE9=Ella Fitzgerald - Holiday In Harlem
TTITLE10=Sarah Vaughn - Sophisticated Lady
TTITLE11=Lena Horne - Meditation
TTITLE12=Carmen McCrae - Everything Must Change
TTITLE13=Ella Fitzgerald - A Tasket, A Tisket
TTITLE14=Sarah Vaughn - Perdido
TTITLE15=Ella Fitzgerald - Cryin' Mood
TTITLE16=Sarah Vaughn - I'll Remember April
TTITLE17=Ella Fitzgerald - I Got A Guy
EXTD=YEAR: 2002
EXTT0=
EXTT1=
EXTT2=
EXTT3=
EXTT4=
EXTT5=
EXTT6=
EXTT7=
EXTT8=
EXTT9=
EXTT10=
EXTT11=
EXTT12=
EXTT13=
EXTT14=
EXTT15=
EXTT16=
EXTT17=
PLAYORDER=
